<?xml version="1.0" standalone="no"?>
<!DOCTYPE svg PUBLIC "-//W3C//DTD SVG 20010904//EN"
 "http://www.w3.org/TR/2001/REC-SVG-20010904/DTD/svg10.dtd">
<svg version="1.0" xmlns="http://www.w3.org/2000/svg"
 width="1000.000000pt" height="1000.000000pt" viewBox="0 0 1000.000000 1000.000000"
 preserveAspectRatio="xMidYMid meet">

<g transform="translate(0.000000,1000.000000) scale(0.100000,-0.100000)"
fill="#000000" stroke="none">
<path d="M4791 6892 c-217 -598 -396 -1094 -398 -1102 -3 -9 3 -7 14 6 68 76
206 71 268 -10 16 -22 84 -201 186 -497 89 -255 247 -711 352 -1014 170 -490
191 -558 195 -626 2 -51 -2 -94 -13 -132 -34 -118 -144 -236 -243 -263 -39
-10 135 -13 958 -12 581 0 987 4 962 9 -126 25 -258 134 -324 270 -37 75 -517
1435 -698 1974 -129 386 -851 2468 -859 2477 -4 4 -184 -482 -400 -1080z"/>
<path d="M4111 5530 c-1 -8 -10 -73 -21 -145 -67 -434 -166 -531 -609 -591
-72 -10 -129 -19 -128 -20 1 -2 74 -14 162 -28 291 -45 415 -108 484 -245 34
-66 70 -204 91 -354 21 -142 30 -177 30 -119 0 17 7 80 16 139 62 415 159 514
573 578 86 14 161 25 166 26 6 0 -60 11 -145 24 -165 25 -289 59 -363 100
-127 71 -190 211 -236 520 -10 72 -19 123 -20 115z"/>
<path d="M2403 3807 c-31 -17 -112 -121 -216 -277 -49 -74 -96 -141 -105 -147
-9 -7 -34 -13 -57 -13 -52 0 -157 -19 -169 -30 -6 -6 8 -25 34 -47 37 -34 43
-45 47 -89 5 -45 0 -60 -42 -143 -33 -66 -43 -97 -36 -104 6 -6 13 -9 15 -6 2
2 40 76 85 163 44 87 92 174 106 192 31 40 77 55 136 43 24 -4 53 -8 64 -8 48
-1 -16 19 -84 25 -39 4 -71 9 -71 11 0 3 45 71 100 151 99 148 192 262 212
262 16 0 3 -101 -25 -195 -13 -44 -54 -172 -90 -285 -68 -213 -88 -293 -69
-275 15 14 166 468 192 575 23 97 26 183 7 198 -8 7 -19 7 -34 -1z m-343 -462
c0 -13 -94 -154 -100 -150 -4 3 -10 18 -13 34 -4 16 -20 45 -38 65 -32 37 -31
39 16 49 28 6 135 8 135 2z"/>
<path d="M2911 3699 c-28 -41 -55 -80 -61 -86 -8 -10 -63 -13 -210 -13 -110 0
-200 -3 -200 -7 0 -5 88 -6 196 -5 l197 4 -6 -24 c-6 -30 -93 -218 -106 -231
-16 -16 -60 1 -98 39 -34 35 -35 35 -61 18 -15 -10 -51 -37 -79 -62 -29 -24
-53 -41 -53 -36 0 5 12 37 27 72 28 66 24 93 -7 52 -38 -50 -85 -190 -64 -190
3 0 40 32 82 71 104 97 112 100 157 60 20 -18 50 -35 66 -38 23 -4 28 -10 24
-22 -52 -132 -85 -306 -66 -347 7 -15 19 -24 33 -24 l23 0 -24 19 c-24 19 -24
19 -12 105 15 108 55 223 136 394 l64 132 148 1 c106 1 137 4 108 10 -22 4
-84 8 -137 8 -54 1 -98 4 -98 7 0 4 21 38 46 76 32 48 43 73 36 80 -7 7 -26
-13 -61 -63z"/>
<path d="M2974 3535 c-4 -9 -2 -21 3 -26 14 -14 45 1 41 20 -4 22 -37 26 -44
6z"/>
<path d="M4253 3534 c-8 -20 8 -36 26 -25 15 10 8 41 -9 41 -6 0 -13 -7 -17
-16z"/>
<path d="M2923 3448 c-30 -34 -70 -107 -82 -153 -21 -79 34 -107 129 -64 24
11 59 31 77 45 38 29 43 30 43 5 0 -10 7 -24 15 -31 20 -16 48 -4 100 42 25
21 40 29 43 20 6 -20 22 -14 22 8 0 12 12 33 28 47 l27 26 -34 -17 c-32 -17
-34 -17 -52 3 -36 38 -72 28 -144 -42 -91 -89 -182 -131 -221 -103 -18 14 -18
16 11 75 16 34 41 80 57 103 36 56 23 82 -19 36z m305 -90 c18 -18 16 -21 -37
-61 -58 -44 -81 -48 -81 -11 0 54 85 105 118 72z"/>
<path d="M4183 3428 c-17 -24 -39 -61 -51 -83 -25 -51 -112 -138 -159 -160
-49 -24 -59 -10 -37 52 10 27 15 57 11 66 -10 26 -64 21 -132 -13 -32 -16 -63
-27 -67 -24 -4 3 2 29 14 60 21 53 17 88 -6 49 -6 -11 -31 -40 -56 -64 -41
-42 -39 -49 3 -12 18 15 18 14 12 -22 -9 -47 0 -47 86 -7 74 34 129 48 129 32
0 -7 -10 -32 -22 -57 -17 -35 -20 -50 -12 -63 25 -40 85 -18 172 62 35 32 42
35 42 19 0 -25 30 -53 57 -53 32 0 84 21 141 56 l52 34 0 -40 c0 -65 43 -67
124 -5 54 41 56 41 56 15 0 -11 9 -29 21 -41 16 -16 27 -19 52 -13 47 10 103
40 146 79 29 26 40 32 49 23 22 -22 13 -37 -43 -74 -62 -41 -78 -63 -73 -102
2 -21 9 -28 29 -30 37 -4 84 39 105 96 10 26 24 55 32 64 17 21 73 47 132 64
26 7 36 13 23 13 -13 1 -52 -10 -89 -24 -36 -14 -68 -25 -70 -25 -11 0 -55 82
-51 94 8 20 80 56 112 56 27 0 31 -10 14 -42 -15 -27 -3 -35 21 -13 25 23 26
51 1 64 -26 14 -115 -10 -147 -40 -20 -19 -24 -30 -19 -56 5 -29 2 -35 -47
-72 -80 -60 -142 -77 -168 -46 -9 11 -8 26 4 69 19 64 20 71 6 71 -5 0 -22
-21 -38 -46 -31 -48 -116 -112 -142 -106 -23 4 -14 50 26 128 38 77 39 79 22
79 -7 0 -31 -29 -53 -63 -64 -99 -203 -180 -244 -142 -19 18 -10 45 44 139 25
44 45 83 45 88 0 22 -30 4 -57 -34z m620 -235 c-23 -46 -68 -82 -84 -66 -18
18 0 50 49 87 53 39 62 33 35 -21z"/>
<path d="M3551 3419 c-19 -11 -41 -30 -50 -41 -13 -15 -107 -58 -128 -58 -2 0
-3 15 -4 33 l-1 32 -10 -38 c-8 -30 -28 -53 -96 -110 -100 -85 -237 -236 -246
-273 -16 -63 52 -73 114 -18 55 50 126 146 165 225 52 102 91 141 162 163 18
6 20 4 16 -13 -17 -66 34 -101 117 -81 27 7 52 16 55 20 3 4 -17 1 -44 -6 -64
-19 -101 -7 -101 35 0 34 12 46 66 60 53 14 92 54 74 76 -17 21 -49 19 -89 -6z
m56 -24 c-15 -14 -36 -25 -45 -25 -20 0 -8 13 33 34 42 22 45 19 12 -9z m-307
-164 c0 -19 -123 -194 -173 -246 -53 -55 -83 -68 -93 -41 -12 31 52 113 172
221 86 76 94 82 94 66z"/>
</g>
</svg>
